<svg aria-hidden="true" style="position:absolute;width:0;height:0;overflow:hidden" xmlns="http://www.w3.org/2000/svg">
    <symbol id="icon-Check" viewBox="0 0 32 32">
        <path d="M27.131 10.085l-14.133 14.133c-0.125 0.126-0.296 0.197-0.473 0.197s-0.348-0.071-0.473-0.197l-7.187-7.187c-0.126-0.125-0.197-0.295-0.197-0.473s0.071-0.348 0.197-0.473l0.933-0.933c0.125-0.126 0.296-0.197 0.473-0.197s0.348 0.071 0.473 0.197l5.773 5.773 12.733-12.733c0.264-0.256 0.683-0.256 0.947 0l0.933 0.947c0.126 0.125 0.197 0.296 0.197 0.473s-0.071 0.348-0.197 0.473z"></path>
    </symbol>
</svg>

<symbol id="icon-burger-menu" viewBox="0 0 24 24" width="24" height="24">
<path d="M4 6H20V8H4V6ZM4 11H20V13H4V11ZM4 16H20V18H4V16Z" fill="none"/>
</symbol>


<symbol id="icon-close-menu" width="24" height="24" viewBox="0 0 24 24">
<path d="M16.192 6.34424L11.949 10.5862L7.70697 6.34424L6.29297 7.75824L10.535 12.0002L6.29297 16.2422L7.70697 17.6562L11.949 13.4142L16.192 17.6562L17.606 16.2422L13.364 12.0002L17.606 7.75824L16.192 6.34424Z" fill="none"/>
</symbol>


<symbol id="icon-favicon" width="24" height="19" viewBox="0 0 24 19">
<path d="M11.4506 0C11.747 0.147206 12.0803 0.569944 12.304 0.819904C14.2235 2.96412 15.2303 5.69511 15.0522 8.56987C14.8798 11.3518 13.506 13.822 11.4439 15.6476C11.0534 15.3807 10.6961 15.0008 10.3837 14.6476C8.63197 12.6664 7.67178 9.8828 7.83907 7.24199C8.01154 4.51928 9.40332 1.79491 11.4506 0Z" fill="none"/>
<path d="M19.6207 3.89363C19.6264 3.90326 19.6329 3.91251 19.6378 3.92257C19.747 4.14502 19.7786 4.49797 19.8063 4.74487C19.9506 6.02887 19.8312 7.31624 19.3796 8.53196C18.2514 11.5692 15.6436 13.8049 12.7603 15.1304C12.7263 15.13 12.7491 15.1327 12.6973 15.1025C12.8734 14.8143 13.1192 14.5566 13.3225 14.2858C13.6334 13.863 13.9152 13.4196 14.1657 12.9589C15.049 11.3336 15.4714 9.54623 15.47 7.70292C15.4697 7.1794 15.4577 6.65646 15.3062 6.1512C15.5766 5.8511 15.9079 5.59816 16.2295 5.35478C17.266 4.57039 18.3104 4.02451 19.6207 3.89363Z" fill="#0D0B0A"/>
<path d="M3.24546 3.90634C3.40107 3.91234 3.55806 3.93253 3.71196 3.95594C4.89638 4.13615 5.9327 4.76687 6.85795 5.49682C7.11619 5.70055 7.39872 5.91299 7.59317 6.1807C7.10122 8.70816 7.75368 11.3583 9.06058 13.5442C9.2693 13.8916 9.49477 14.2286 9.73622 14.5543C9.85151 14.7094 9.98874 14.8503 10.0921 15.0131L10.0555 15.0607C7.90066 14.1392 5.88206 12.5085 4.58347 10.5594C3.22113 8.51445 2.77065 6.31166 3.24546 3.90634Z" fill="none"/>
<path d="M21.7283 9.54662C22.0719 9.50561 22.8419 9.46228 23.1299 9.64566C23.1444 9.68899 23.1487 9.69324 23.1502 9.74586C23.156 9.94742 23.0243 10.2492 22.956 10.4372C22.499 11.7348 21.7166 12.8935 20.6838 13.8022C18.6619 15.59 16.0411 16.2314 13.3943 16.0612C12.8943 16.009 12.379 15.9742 11.8984 15.821C14.116 15.1389 16.2255 13.7454 17.7539 12.0052C18.1296 11.5773 18.405 11.0806 18.7706 10.6504C19.4644 9.83368 20.7224 9.6178 21.7283 9.54662Z" fill="none"/>
<path d="M0.54306 9.61431C1.57648 9.49245 2.97875 9.66267 3.82995 10.306C4.33602 10.6887 4.641 11.399 5.05925 11.8826C6.36719 13.3972 8.00534 14.5915 9.84752 15.3733C10.2398 15.5412 10.6436 15.7165 11.0584 15.8186L10.2293 15.9571C7.8148 16.3045 5.31281 15.8732 3.24693 14.5299C1.8401 13.615 0.849543 12.3604 0.26718 10.7954C0.181681 10.566 0.0537019 10.3169 0.00998501 10.0778C-0.0155488 9.93813 0.00692865 9.84605 0.0885206 9.72767C0.218395 9.63211 0.387227 9.63327 0.54306 9.61431Z" fill="none"/>
<path d="M11.5762 15.9823C11.9962 16.1316 12.4189 16.2512 12.8595 16.3227C13.6186 16.4458 14.5006 16.4098 15.1826 16.8052C15.6862 17.0973 16.202 17.7813 16.3443 18.3484C16.3704 18.4525 16.3629 18.461 16.3095 18.5473C15.7824 18.7372 15.2705 18.692 14.746 18.5202C13.4825 18.107 12.1946 17.1862 11.5762 15.9823Z" fill="none"/>
<path d="M11.3384 15.9854C11.365 15.983 11.3906 15.997 11.4164 16.0043C11.4151 16.0163 11.4153 16.0287 11.4124 16.0407C11.3476 16.3096 10.3074 17.406 10.0672 17.5959C9.23727 18.2513 8.00496 18.7716 6.93424 18.6436C6.90561 18.6374 6.86584 18.6297 6.83977 18.6177C6.78212 18.591 6.7456 18.5697 6.7304 18.5074C6.68981 18.3399 6.78502 18.1457 6.86116 18.0002C7.10644 17.5313 7.49053 16.9812 7.97172 16.7278C8.56484 16.416 9.44065 16.4171 10.0998 16.2999C10.5221 16.2248 10.929 16.1103 11.3384 15.9854Z" fill="none"/>
</symbol>


<symbol id="icon-facebook" width="24" height="24" viewBox="0 0 24 24">
<path d="M22 12.3038C22 6.74719 17.5229 2.24268 12 2.24268C6.47715 2.24268 2 6.74719 2 12.3038C2 17.3255 5.65684 21.4879 10.4375 22.2427V15.2121H7.89844V12.3038H10.4375V10.0872C10.4375 7.56564 11.9305 6.1728 14.2146 6.1728C15.3088 6.1728 16.4531 6.36931 16.4531 6.36931V8.84529H15.1922C13.95 8.84529 13.5625 9.6209 13.5625 10.4166V12.3038H16.3359L15.8926 15.2121H13.5625V22.2427C18.3432 21.4879 22 17.3257 22 12.3038Z" fill="none"/>
</symbol>


<symbol id="icon-instagram" width="24" height="24" viewBox="0 0 24 24">
<path d="M11.9988 4.62091C14.4032 4.62091 14.6878 4.63159 15.6332 4.67378C16.5123 4.71258 16.9864 4.85994 17.303 4.98311C17.7215 5.14509 18.0235 5.34194 18.3362 5.65465C18.6528 5.97129 18.8458 6.26994 19.0111 6.68838C19.1343 7.00503 19.2816 7.48253 19.3204 8.35822C19.3626 9.3076 19.3733 9.59218 19.3733 11.9932C19.3733 14.3942 19.3626 14.6821 19.3204 15.6281C19.2816 16.5072 19.1343 16.9813 19.0111 17.298C18.8491 17.7164 18.6528 18.0184 18.3396 18.3311C18.0229 18.6478 17.7243 18.8407 17.3064 19.0061C16.9898 19.1292 16.5117 19.2766 15.6366 19.3154C14.6872 19.3576 14.4026 19.3683 12.0016 19.3683C9.60062 19.3683 9.31266 19.3576 8.36666 19.3154C7.48759 19.2766 7.01346 19.1292 6.69682 19.0061C6.27838 18.8441 5.97635 18.6478 5.66308 18.3345C5.34644 18.0179 5.15353 17.7192 4.98817 17.3013C4.865 16.9847 4.71765 16.5066 4.67884 15.6315C4.63666 14.6821 4.62597 14.3975 4.62597 11.9965C4.62597 9.59556 4.63666 9.3076 4.67884 8.3616C4.71765 7.48253 4.865 7.0084 4.98817 6.69176C5.15015 6.27331 5.347 5.97129 5.65971 5.65802C5.97635 5.34137 6.275 5.14846 6.69344 4.98311C7.01009 4.85994 7.48759 4.71258 8.36328 4.67378C9.30872 4.63159 9.59387 4.62091 11.9982 4.62091H11.9988ZM11.9988 3.00056C9.55563 3.00056 9.25023 3.01125 8.29017 3.05343C7.33405 3.09561 6.67657 3.25028 6.1074 3.47187C5.51348 3.70359 5.01067 4.00955 4.5118 4.51236C4.00899 5.01179 3.70303 5.51404 3.47131 6.10459C3.24972 6.6777 3.09505 7.33123 3.05287 8.28736C3.01069 9.25079 3 9.55619 3 11.9994C3 14.4425 3.01069 14.7479 3.05287 15.708C3.09505 16.6641 3.24972 17.3216 3.47131 17.8908C3.70359 18.4847 4.00899 18.9875 4.5118 19.4864C5.01067 19.9852 5.51348 20.2951 6.10402 20.5235C6.67713 20.7451 7.33067 20.8997 8.28679 20.9419C9.24629 20.9841 9.55225 20.9948 11.9954 20.9948C14.4386 20.9948 14.7446 20.9841 15.7041 20.9419C16.6602 20.8997 17.3177 20.7451 17.8868 20.5235C18.4774 20.2951 18.9802 19.9858 19.4791 19.4864C19.9779 18.9869 20.2878 18.4847 20.5162 17.8941C20.7378 17.321 20.8924 16.6675 20.9346 15.7114C20.9768 14.7519 20.9875 14.4459 20.9875 12.0027C20.9875 9.55956 20.9768 9.25417 20.9346 8.29411C20.8924 7.33798 20.7378 6.68051 20.5162 6.11133C20.2946 5.51348 19.9886 5.01123 19.4864 4.5118C18.9875 4.01293 18.4847 3.70303 17.8941 3.47469C17.321 3.25309 16.6675 3.09842 15.7114 3.05624C14.7485 3.01069 14.4425 3 11.9994 3L11.9988 3.00056Z" fill="none"/>
<path d="M11.9976 7.37671C9.44585 7.37671 7.375 9.447 7.375 11.9993C7.375 14.5516 9.44529 16.6219 11.9976 16.6219C14.5499 16.6219 16.6201 14.5516 16.6201 11.9993C16.6201 9.44756 14.5499 7.37671 11.9976 7.37671ZM11.9976 14.9976C10.3418 14.9976 8.99928 13.6551 8.99928 11.9993C8.99928 10.3435 10.3418 9.00099 11.9976 9.00099C13.6533 9.00099 14.9959 10.3435 14.9959 11.9993C14.9959 13.6551 13.6533 14.9976 11.9976 14.9976Z" fill="none"/>
<path d="M17.8812 7.19404C17.8812 7.79021 17.3981 8.27333 16.8019 8.27333C16.2058 8.27333 15.7227 7.79021 15.7227 7.19404C15.7227 6.59787 16.2058 6.11475 16.8019 6.11475C17.3981 6.11475 17.8812 6.59787 17.8812 7.19404Z" fill="none"/>
</symbol>


<symbol id="icon-linkedin" width="24" height="24" viewBox="0 0 24 24">
<path d="M19.3125 3H4.6875C3.75938 3 3 3.75938 3 4.6875V19.3125C3 20.2406 3.75938 21 4.6875 21H19.3125C20.2406 21 21 20.2406 21 19.3125V4.6875C21 3.75938 20.2406 3 19.3125 3ZM9.75 17.625H7.5V9.75H9.75V17.625ZM8.625 8.625C8.00287 8.625 7.5 8.12213 7.5 7.5C7.5 6.87788 8.00287 6.375 8.625 6.375C9.24713 6.375 9.75 6.87788 9.75 7.5C9.75 8.12213 9.24713 8.625 8.625 8.625ZM17.625 17.625H15.375V13.125C15.375 12.5029 14.8721 12 14.25 12C13.6279 12 13.125 12.5029 13.125 13.125V17.625H10.875V9.75H13.125V11.1456C13.5891 10.5094 14.2989 9.75 15.0938 9.75C16.4932 9.75 17.625 11.0089 17.625 12.5625V17.625Z" fill="none"/>
</symbol>


<symbol id="icon-youtube" width="24" height="24" viewBox="0 0 24 24">
<path d="M21.5933 7.20301C21.4794 6.78041 21.2568 6.39501 20.9477 6.08518C20.6386 5.77534 20.2537 5.55187 19.8313 5.43701C18.2653 5.00701 12.0003 5.00001 12.0003 5.00001C12.0003 5.00001 5.73633 4.99301 4.16933 5.40401C3.74725 5.52415 3.36315 5.75078 3.0539 6.06214C2.74464 6.3735 2.52062 6.75913 2.40333 7.18201C1.99033 8.74801 1.98633 11.996 1.98633 11.996C1.98633 11.996 1.98233 15.26 2.39233 16.81C2.62233 17.667 3.29733 18.344 4.15533 18.575C5.73733 19.005 11.9853 19.012 11.9853 19.012C11.9853 19.012 18.2503 19.019 19.8163 18.609C20.2388 18.4943 20.6241 18.2714 20.934 17.9622C21.2439 17.653 21.4677 17.2682 21.5833 16.846C21.9973 15.281 22.0003 12.034 22.0003 12.034C22.0003 12.034 22.0203 8.76901 21.5933 7.20301ZM9.99633 15.005L10.0013 9.00501L15.2083 12.01L9.99633 15.005Z" fill="none"/>
</symbol>


<symbol id="icon-X" width="24" height="24" viewBox="0 0 24 24">
<path d="M17.1761 4.24268H19.9362L13.9061 11.0201L21 20.2427H15.4456L11.0951 14.6493L6.11723 20.2427H3.35544L9.80517 12.9935L3 4.24268H8.69545L12.6279 9.3553L17.1761 4.24268ZM16.2073 18.6181H17.7368L7.86441 5.78196H6.2232L16.2073 18.6181Z" fill="none"/>
</symbol>


<symbol id="icon-logo" width="84" height="24" viewBox="0 0 84 24">
<g clip-path="url(#clip0_8204_102496)">
<path d="M14.4189 0C14.7921 0.185358 15.2117 0.717661 15.4935 1.0324C17.9104 3.73235 19.1782 7.17116 18.9539 10.791C18.7369 14.2939 17.0069 17.4043 14.4104 19.7031C13.9187 19.367 13.4688 18.8886 13.0755 18.4439C10.8697 15.9492 9.66063 12.4442 9.87127 9.11895C10.0884 5.69058 11.8409 2.26011 14.4189 0Z" fill="none"/>
<path d="M24.7042 4.90277C24.7113 4.9149 24.7195 4.92654 24.7257 4.93921C24.8632 5.21932 24.903 5.66374 24.9379 5.97463C25.1196 7.59142 24.9692 9.21244 24.4006 10.7432C22.98 14.5677 19.6963 17.3829 16.0657 19.0518C16.0229 19.0513 16.0516 19.0548 15.9863 19.0168C16.2082 18.6538 16.5176 18.3294 16.7736 17.9884C17.1651 17.4559 17.5199 16.8977 17.8354 16.3175C18.9475 14.271 19.4794 12.0204 19.4777 9.69934C19.4773 9.04014 19.4622 8.38166 19.2714 7.74545C19.6119 7.36758 20.0291 7.04908 20.4341 6.74262C21.7392 5.75493 23.0542 5.06757 24.7042 4.90277Z" fill="none"/>
<path d="M4.08781 4.91878C4.28374 4.92633 4.48142 4.95176 4.6752 4.98123C6.1666 5.20814 7.47151 6.00233 8.63657 6.92148C8.96174 7.17801 9.3175 7.4455 9.56234 7.7826C8.94288 10.9651 9.76445 14.3022 11.4101 17.0545C11.6729 17.492 11.9568 17.9163 12.2608 18.3265C12.406 18.5218 12.5788 18.6991 12.7089 18.9042L12.6629 18.9641C9.94952 17.8037 7.40774 15.7504 5.7726 13.2962C4.05716 10.7212 3.48993 7.9475 4.08781 4.91878Z" fill="none"/>
<path d="M27.3599 12.0209C27.7926 11.9692 28.7621 11.9147 29.1248 12.1456C29.1431 12.2001 29.1485 12.2055 29.1504 12.2718C29.1577 12.5256 28.9918 12.9055 28.9059 13.1423C28.3304 14.7762 27.3452 16.2352 26.0447 17.3795C23.4988 19.6306 20.1987 20.4382 16.8659 20.2239C16.2364 20.1581 15.5875 20.1143 14.9824 19.9214C17.7748 19.0626 20.4309 17.3079 22.3555 15.1167C22.8285 14.5779 23.1754 13.9524 23.6357 13.4107C24.5093 12.3823 26.0934 12.1105 27.3599 12.0209Z" fill="none"/>
<path d="M0.683809 12.1061C1.98507 11.9527 3.75077 12.167 4.82259 12.9771C5.45982 13.4589 5.84384 14.3533 6.37049 14.9622C8.01743 16.8694 10.0801 18.3732 12.3998 19.3578C12.8937 19.5692 13.4022 19.7898 13.9245 19.9185L12.8804 20.0929C9.84022 20.5303 6.68976 19.9871 4.08846 18.2958C2.31701 17.1437 1.06973 15.5639 0.336427 13.5934C0.228768 13.3045 0.0676202 12.9908 0.0125729 12.6897C-0.0195786 12.5139 0.0087244 12.3979 0.111463 12.2489C0.274998 12.1285 0.487588 12.13 0.683809 12.1061Z" fill="none"/>
<path d="M53.7794 9.4788C54.7926 9.47036 55.898 9.37968 56.8985 9.52567C57.5424 9.61958 58.1963 9.84992 58.588 10.4016C58.8759 10.8081 58.9701 11.3789 58.881 11.8645C58.7718 12.4587 58.3949 12.8023 57.9181 13.1223C58.0325 13.1706 58.1454 13.2231 58.255 13.2815C58.6763 13.5095 58.9745 13.9047 59.0978 14.3655C59.2662 14.9952 59.1311 15.6438 58.8175 16.2024C58.7468 16.3096 58.6635 16.4043 58.5704 16.4925C57.6087 17.4044 55.5005 17.2278 54.2579 17.2161C54.0187 17.2142 53.7038 17.2357 53.5255 17.054C53.4822 16.9629 53.4649 16.9028 53.4591 16.8001C53.3773 15.4655 53.4518 14.0805 53.4513 12.7415C53.4508 11.793 53.3559 10.5585 53.4796 9.64188C53.5751 9.52229 53.6357 9.52308 53.7794 9.4788ZM57.1739 14.1722C56.6372 13.822 55.7335 13.9231 55.1104 13.9241L55.1124 15.6536C55.8027 15.6585 56.6094 15.765 57.2218 15.3948C57.366 15.1824 57.5107 14.8664 57.4688 14.6018C57.4386 14.4096 57.3336 14.2764 57.1739 14.1722ZM56.9181 11.097C56.4061 10.7889 55.6872 10.8673 55.1114 10.8704V12.5306C55.7291 12.5354 56.4662 12.6264 57.006 12.2776C57.151 12.0697 57.2913 11.7714 57.2364 11.5091C57.1965 11.3165 57.0822 11.1956 56.9181 11.097Z" fill="none"/>
<path d="M44.3313 11.2761C44.4857 11.2633 44.6413 11.2713 44.7932 11.3005C45.2568 11.3934 45.4828 11.7346 45.7307 12.0984C45.7448 11.9712 45.7547 11.8339 45.7844 11.7097C45.8151 11.5802 45.8858 11.5005 46.0022 11.4382C46.1893 11.3386 46.5916 11.3322 46.7873 11.405C46.9304 11.4583 47.0896 11.5824 47.1389 11.7322C47.2846 12.175 47.2281 16.5104 47.1438 17.1033C47.0882 17.4938 46.967 17.8791 46.7698 18.2214C46.4522 18.7738 45.9114 19.1339 45.3039 19.2986C44.4475 19.53 43.4735 19.4562 42.7092 18.9958C42.3682 18.7907 42.2085 18.5267 42.1184 18.1462C42.1471 18.0088 42.1812 17.875 42.2991 17.7859C42.6819 17.4966 43.509 17.9822 43.9338 18.0613C44.2997 18.129 44.6943 18.092 44.9983 17.862C45.4995 17.484 45.5825 16.785 45.6682 16.2087C45.3326 16.5673 45.0137 16.856 44.5188 16.9773C43.9826 17.1091 43.395 17.0185 42.9338 16.7126C42.3264 16.3102 41.9877 15.6196 41.8635 14.9187C41.7121 14.0653 41.8443 13.0444 42.3616 12.3298C42.855 11.6491 43.5338 11.3982 44.3313 11.2761ZM44.4221 12.5827C44.0228 12.7333 43.802 12.9182 43.6311 13.3161C43.4202 13.8052 43.4143 14.5141 43.6204 15.0046C43.729 15.2633 43.9472 15.5361 44.2219 15.6286C44.4031 15.6894 44.6223 15.6633 44.8088 15.6501C45.1376 15.5327 45.3248 15.394 45.4807 15.0749C45.7207 14.5844 45.7282 13.8929 45.5452 13.3806C45.439 13.083 45.2289 12.7905 44.9309 12.6618C44.7784 12.5961 44.5868 12.5745 44.4221 12.5827Z" fill="none"/>
<path d="M77.4994 11.3223C77.8915 11.2703 78.2779 11.2879 78.6481 11.4413C79.1596 11.6531 79.4251 12.0389 79.6277 12.5314C79.7315 12.2713 79.846 12.0092 80.0296 11.7939C80.32 11.4522 80.7004 11.3163 81.1408 11.2994C81.6479 11.2799 82.1677 11.3964 82.5399 11.7607C82.7844 12.0004 82.9345 12.3214 83.0163 12.6503C83.2341 13.5261 83.1123 15.408 83.1152 16.3979C83.1157 16.5494 83.1347 17.0282 83.0163 17.1179C82.8146 17.2699 82.1005 17.2362 81.8491 17.2007C81.7025 17.1802 81.6119 17.1013 81.5515 16.9683C81.4584 16.7637 81.5081 16.3984 81.511 16.1718C81.5208 15.4377 81.7015 13.4087 81.267 12.8734C81.1671 12.7506 81.0258 12.6736 80.8665 12.6624C80.6327 12.6459 80.3351 12.7267 80.1651 12.8933C79.5629 13.4833 79.7627 15.5809 79.7675 16.4057C79.769 16.5723 79.7748 16.7545 79.7544 16.9196C79.7451 16.9927 79.7198 17.0774 79.6531 17.1154C79.3963 17.2625 78.7718 17.2406 78.4888 17.1744C78.3412 17.1398 78.2783 17.0901 78.2257 16.9469C78.1385 16.7096 78.1872 16.3584 78.1916 16.1075C78.2048 15.3719 78.3792 13.5427 78.005 12.9913C77.8925 12.8256 77.7254 12.7248 77.5286 12.6926C77.305 12.6561 77.0722 12.6858 76.89 12.8295C76.1578 13.4073 76.358 15.4323 76.3614 16.2693C76.3624 16.4705 76.4033 16.7583 76.3566 16.9464C76.3376 17.0248 76.3147 17.0726 76.2474 17.1169C76.0121 17.2713 75.374 17.2382 75.0924 17.1827C74.974 17.1593 74.8985 17.0867 74.8474 16.9795C74.7753 16.827 74.7539 12.4262 74.7806 11.9902C74.788 11.8689 74.8133 11.7393 74.8688 11.63C74.9404 11.4898 75.0603 11.3985 75.2074 11.351C75.5557 11.2385 75.9902 11.363 76.2981 11.534C76.3721 11.809 76.319 12.169 76.3074 12.4559C76.3434 12.3828 76.3799 12.3098 76.4174 12.2377C76.6893 11.7125 76.9445 11.4985 77.4994 11.3223Z" fill="none"/>
<path d="M71.1673 11.3449C72.788 11.3113 74.1352 12.5874 74.1888 14.2082C74.2424 15.8283 72.9833 17.1902 71.3636 17.2638C70.2982 17.3125 69.2885 16.7842 68.721 15.881C68.1541 14.9775 68.116 13.8392 68.6224 12.9005C69.1285 11.9614 70.1011 11.3671 71.1673 11.3449ZM70.9681 12.633C70.5326 12.8263 70.2958 13.0482 70.1273 13.5031C69.9256 14.0471 69.9581 14.807 70.2161 15.3263C70.3554 15.6059 70.5718 15.8334 70.8724 15.9337C71.0783 16.0028 71.271 16.0136 71.4817 15.964C71.8992 15.7891 72.1491 15.5665 72.3206 15.1388C72.5353 14.6026 72.5332 13.886 72.2864 13.3605C72.132 13.0317 71.8569 12.7606 71.5042 12.6564C71.3318 12.6053 71.1448 12.6169 70.9681 12.633Z" fill="none"/>
<path d="M38.3509 11.3536C39.9821 11.2799 41.3646 12.5411 41.4408 14.1719C41.5173 15.8033 40.2581 17.1881 38.6273 17.2667C36.993 17.3451 35.6051 16.083 35.5287 14.4483C35.4524 12.814 36.7164 11.4276 38.3509 11.3536ZM38.8119 12.6719C38.6229 12.6073 38.4285 12.6081 38.2328 12.6329C37.7959 12.8487 37.546 13.0744 37.3793 13.5518C37.1907 14.0925 37.2186 14.8646 37.4906 15.3721C37.639 15.6491 37.8634 15.8518 38.1664 15.9444C38.3524 16.0014 38.5631 16.0063 38.7523 15.961C39.1686 15.7881 39.413 15.5639 39.5804 15.1368C39.7928 14.5951 39.7753 13.8805 39.5296 13.3516C39.3854 13.0409 39.14 12.7844 38.8119 12.6719Z" fill="none"/>
<path d="M64.5345 11.3858C65.5851 11.216 66.645 11.624 67.3118 12.4532C67.9782 13.2827 68.1482 14.4062 67.7561 15.3956C67.3635 16.3845 66.47 17.0873 65.4163 17.2344C63.8112 17.459 62.3239 16.3488 62.0823 14.7461C61.8404 13.1436 62.9348 11.6447 64.5345 11.3858ZM64.7757 12.6299C64.3372 12.8165 64.0848 13.0285 63.9075 13.4825C63.6996 14.0149 63.7201 14.7523 63.9661 15.2696C64.1147 15.5816 64.3674 15.8382 64.7015 15.9444C64.8685 15.998 65.0583 15.9971 65.2308 15.9756C65.668 15.7911 65.9226 15.5843 66.1038 15.1299C66.3141 14.6019 66.3107 13.8733 66.0657 13.3575C65.92 13.0511 65.6723 12.7927 65.3479 12.6778C65.1649 12.6131 64.967 12.6139 64.7757 12.6299Z" fill="none"/>
<path d="M49.7499 11.325C50.12 11.281 50.4769 11.2883 50.8417 11.3728C51.3956 11.5012 51.8599 11.8232 52.1425 12.3201C52.2935 12.5861 52.3809 12.8784 52.4228 13.1804C52.4875 13.6474 52.524 16.5995 52.4179 17.0056C52.3288 17.1194 52.2392 17.1605 52.1005 17.1902C51.8637 17.2404 51.3447 17.2708 51.1532 17.0935C50.9862 16.9391 51.0204 16.616 51.0185 16.408C50.7408 16.8181 50.4615 17.1489 49.9569 17.2752C49.3933 17.4154 48.8704 17.2506 48.3847 16.9705C48.178 16.7798 48.0207 16.5846 47.9315 16.3142C47.7816 15.8579 47.8297 15.2424 48.0634 14.822C48.6299 13.8024 49.9651 13.8633 50.9413 13.5759L51.0019 13.5574C50.9625 13.4354 50.9244 13.3108 50.8739 13.1931C50.3216 11.9195 48.9443 13.3107 48.2782 12.9607C48.1438 12.8901 48.0467 12.747 48.0126 12.6013C47.967 12.4076 48.0193 12.2825 48.1249 12.1218C48.4825 11.5763 49.1527 11.4388 49.7499 11.325ZM50.9364 14.7283C50.5306 14.8398 49.7693 14.9626 49.5273 15.3308C49.4486 15.4511 49.442 15.6086 49.4931 15.741C49.5291 15.8343 49.5997 15.9161 49.662 15.9929C50.0814 16.0212 50.3444 15.9903 50.6649 15.699C50.8593 15.5217 51.0375 15.2369 51.0282 14.9627C51.0258 14.8945 51.0067 14.8253 50.9911 14.7595L50.9364 14.7283Z" fill="none"/>
<path d="M33.1956 12.4213C33.3409 11.9595 34.4721 9.74981 34.8325 9.54229C35.0197 9.43453 36.019 9.41807 36.2198 9.50994C36.3486 9.56889 36.3625 9.60372 36.4208 9.72399C36.318 10.2961 35.0539 12.2162 34.6799 12.8422L34.023 13.9344C34.0255 14.5911 34.141 16.5952 33.9121 17.0706C33.8318 17.132 33.775 17.1661 33.6745 17.1895C33.3661 17.2616 32.7524 17.2401 32.4805 17.0692C32.27 16.792 32.3801 14.4912 32.3805 13.9821C32.0446 13.4453 29.8775 9.98501 29.9347 9.65448C30.0063 9.5515 30.0524 9.52573 30.1684 9.48013C30.534 9.46932 31.2773 9.37237 31.5797 9.55603C31.9722 9.79429 33.0497 11.9351 33.1956 12.4213Z" fill="none"/>
<path d="M60.0336 9.47914C60.4169 9.4692 61.0444 9.37328 61.3752 9.57145C61.4682 10.203 61.4317 10.8714 61.4331 11.5084L61.437 14.4585C61.437 15.2287 61.5218 16.1557 61.4224 16.9118C61.4029 17.0623 61.3099 17.1115 61.2008 17.1977C60.8013 17.2109 60.187 17.3098 59.8582 17.0501C59.7807 16.7549 59.732 9.9448 59.8065 9.6758C59.8421 9.54836 59.9259 9.5338 60.0336 9.47914Z" fill="none"/>
<path d="M14.5762 20.1245C15.1051 20.3126 15.6373 20.4631 16.1921 20.5532C17.148 20.7081 18.2585 20.6628 19.1173 21.1607C19.7514 21.5285 20.4009 22.3897 20.5801 23.1039C20.613 23.2349 20.6035 23.2457 20.5363 23.3543C19.8726 23.5935 19.228 23.5365 18.5675 23.3202C16.9766 22.7999 15.3549 21.6405 14.5762 20.1245Z" fill="none"/>
<path d="M14.2774 20.1284C14.3109 20.1255 14.3431 20.143 14.3756 20.1523C14.3739 20.1674 14.3742 20.183 14.3706 20.1981C14.2889 20.5366 12.9792 21.9172 12.6768 22.1564C11.6317 22.9816 10.08 23.6368 8.73177 23.4756C8.69572 23.4678 8.64565 23.458 8.61281 23.4429C8.54023 23.4093 8.49424 23.3825 8.4751 23.3041C8.42399 23.0932 8.54388 22.8486 8.63975 22.6655C8.9486 22.075 9.43224 21.3823 10.0381 21.0632C10.785 20.6706 11.8878 20.6721 12.7178 20.5245C13.2495 20.4299 13.7619 20.2858 14.2774 20.1284Z" fill="none"/>
</g>
<defs>
<clipPath id="clip0_8204_102496">
<rect width="83.147" height="23.5097" fill="white"/>
</clipPath>
</defs>
</symbol>


<symbol></symbol>
</svg>
