<svg width="84" height="24" viewBox="0 0 84 24" fill="none" xmlns="http://www.w3.org/2000/svg">
<g clip-path="url(#clip0_16213_28)">
<path d="M14.4191 0C14.7923 0.185358 15.2119 0.717661 15.4937 1.0324C17.9106 3.73235 19.1784 7.17116 18.9542 10.791C18.7371 14.2939 17.0072 17.4043 14.4106 19.7031C13.919 19.367 13.469 18.8886 13.0757 18.4439C10.8699 15.9492 9.66087 12.4442 9.87152 9.11895C10.0887 5.69058 11.8412 2.26011 14.4191 0Z" fill="#0D0B0A"/>
<path d="M24.7051 4.90277C24.7123 4.9149 24.7204 4.92654 24.7266 4.93921C24.8642 5.21932 24.9039 5.66374 24.9389 5.97463C25.1206 7.59142 24.9702 9.21244 24.4016 10.7432C22.9809 14.5677 19.6973 17.3829 16.0667 19.0518C16.0239 19.0513 16.0526 19.0548 15.9873 19.0168C16.2092 18.6538 16.5185 18.3294 16.7745 17.9884C17.1661 17.4559 17.5209 16.8977 17.8364 16.3175C18.9485 14.271 19.4804 12.0204 19.4787 9.69934C19.4783 9.04014 19.4631 8.38166 19.2724 7.74545C19.6129 7.36758 20.0301 7.04908 20.435 6.74262C21.7401 5.75493 23.0552 5.06757 24.7051 4.90277Z" fill="#0D0B0A"/>
<path d="M4.08732 4.91878C4.28325 4.92633 4.48093 4.95176 4.67472 4.98123C6.16611 5.20814 7.47102 6.00233 8.63608 6.92148C8.96125 7.17801 9.31701 7.4455 9.56185 7.7826C8.94239 10.9651 9.76396 14.3022 11.4096 17.0545C11.6724 17.492 11.9563 17.9163 12.2603 18.3265C12.4055 18.5218 12.5783 18.6991 12.7085 18.9042L12.6624 18.9641C9.94903 17.8037 7.40726 15.7504 5.77211 13.2962C4.05668 10.7212 3.48945 7.9475 4.08732 4.91878Z" fill="#0D0B0A"/>
<path d="M27.3594 12.0209C27.7921 11.9692 28.7616 11.9147 29.1243 12.1456C29.1426 12.2001 29.148 12.2055 29.1499 12.2718C29.1572 12.5256 28.9913 12.9055 28.9054 13.1423C28.3299 14.7762 27.3447 16.2352 26.0442 17.3795C23.4983 19.6306 20.1982 20.4382 16.8654 20.2239C16.2359 20.1581 15.587 20.1143 14.9819 19.9214C17.7743 19.0626 20.4304 17.3079 22.355 15.1167C22.828 14.5779 23.1749 13.9524 23.6352 13.4107C24.5088 12.3823 26.0929 12.1105 27.3594 12.0209Z" fill="#0D0B0A"/>
<path d="M0.683809 12.1061C1.98507 11.9527 3.75077 12.167 4.82259 12.9771C5.45982 13.4589 5.84384 14.3533 6.37049 14.9622C8.01743 16.8694 10.0801 18.3732 12.3998 19.3578C12.8937 19.5692 13.4022 19.7898 13.9245 19.9185L12.8804 20.0929C9.84022 20.5303 6.68976 19.9871 4.08846 18.2958C2.31701 17.1437 1.06973 15.5639 0.336427 13.5934C0.228768 13.3045 0.0676202 12.9908 0.0125729 12.6897C-0.0195786 12.5139 0.0087244 12.3979 0.111463 12.2489C0.274998 12.1285 0.487588 12.13 0.683809 12.1061Z" fill="#0D0B0A"/>
<path d="M53.7789 9.47841C54.7921 9.46998 55.8975 9.3793 56.898 9.52529C57.542 9.61921 58.1958 9.85023 58.5875 10.4022C58.8754 10.8087 58.9696 11.3786 58.8805 11.8642C58.7714 12.4583 58.3953 12.802 57.9186 13.122C58.0329 13.1702 58.145 13.2237 58.2545 13.2821C58.6757 13.5101 58.974 13.9044 59.0973 14.3651C59.2658 14.995 59.1307 15.6443 58.817 16.203C58.7465 16.3099 58.6637 16.4041 58.5709 16.4921C57.6093 17.4045 55.5001 17.2284 54.2574 17.2167C54.0183 17.2147 53.7043 17.2352 53.526 17.0536C53.4827 16.9626 53.4644 16.9034 53.4586 16.8007C53.3768 15.466 53.4513 14.0811 53.4508 12.7421C53.4503 11.7936 53.3554 10.5582 53.4791 9.6415C53.5745 9.52206 53.6353 9.52267 53.7789 9.47841ZM57.1734 14.1727C56.6367 13.8226 55.733 13.9237 55.11 13.9247L55.1129 15.6542C55.8031 15.6591 56.6091 15.7646 57.2213 15.3944C57.3654 15.1821 57.5101 14.8668 57.4684 14.6024C57.4382 14.4102 57.333 14.277 57.1734 14.1727ZM56.9176 11.0976C56.4057 10.7896 55.6876 10.8669 55.1119 10.87V12.5302C55.7295 12.5351 56.4658 12.6268 57.0055 12.2782C57.1506 12.0702 57.291 11.7712 57.2359 11.5087C57.196 11.3162 57.0816 11.1962 56.9176 11.0976Z" fill="#0D0B0A"/>
<path d="M44.3318 11.2761C44.4861 11.2633 44.6418 11.2713 44.7937 11.3005C45.2572 11.3934 45.4833 11.7346 45.7312 12.0984C45.7453 11.9712 45.7552 11.8339 45.7849 11.7097C45.8156 11.5802 45.8862 11.5005 46.0027 11.4382C46.1898 11.3386 46.5921 11.3322 46.7878 11.405C46.9309 11.4583 47.0901 11.5824 47.1394 11.7322C47.285 12.175 47.2286 16.5104 47.1443 17.1033C47.0887 17.4938 46.9674 17.8791 46.7703 18.2214C46.4526 18.7738 45.9119 19.1339 45.3044 19.2986C44.448 19.53 43.474 19.4562 42.7097 18.9958C42.3687 18.7907 42.209 18.5267 42.1189 18.1462C42.1476 18.0088 42.1817 17.875 42.2995 17.7859C42.6824 17.4966 43.5095 17.9822 43.9343 18.0613C44.3002 18.129 44.6948 18.092 44.9988 17.862C45.5 17.484 45.583 16.785 45.6687 16.2087C45.333 16.5673 45.0142 16.856 44.5193 16.9773C43.983 17.1091 43.3955 17.0185 42.9343 16.7126C42.3269 16.3102 41.9882 15.6196 41.864 14.9187C41.7126 14.0653 41.8448 13.0444 42.362 12.3298C42.8555 11.6491 43.5343 11.3982 44.3318 11.2761ZM44.4226 12.5827C44.0233 12.7333 43.8025 12.9182 43.6316 13.3161C43.4207 13.8052 43.4148 14.5141 43.6208 15.0046C43.7295 15.2633 43.9477 15.5361 44.2224 15.6286C44.4036 15.6894 44.6228 15.6633 44.8093 15.6501C45.1381 15.5327 45.3253 15.394 45.4812 15.0749C45.7212 14.5844 45.7287 13.8929 45.5456 13.3806C45.4395 13.083 45.2294 12.7905 44.9314 12.6618C44.7789 12.5961 44.5873 12.5745 44.4226 12.5827Z" fill="#0D0B0A"/>
<path d="M77.5001 11.3223C77.8923 11.2703 78.2786 11.2879 78.6488 11.4413C79.1603 11.6531 79.4258 12.0389 79.6285 12.5314C79.7322 12.2713 79.8467 12.0092 80.0304 11.7939C80.3207 11.4522 80.7012 11.3163 81.1415 11.2994C81.6486 11.2799 82.1684 11.3964 82.5406 11.7607C82.7852 12.0004 82.9352 12.3214 83.017 12.6503C83.2348 13.5261 83.113 15.408 83.1159 16.3979C83.1164 16.5494 83.1354 17.0282 83.017 17.1179C82.8154 17.2699 82.1012 17.2362 81.8498 17.2007C81.7032 17.1802 81.6126 17.1013 81.5522 16.9683C81.4592 16.7637 81.5088 16.3984 81.5118 16.1718C81.5215 15.4377 81.7022 13.4087 81.2677 12.8734C81.1678 12.7506 81.0266 12.6736 80.8673 12.6624C80.6334 12.6459 80.3358 12.7267 80.1658 12.8933C79.5637 13.4833 79.7634 15.5809 79.7683 16.4057C79.7697 16.5723 79.7756 16.7545 79.7551 16.9196C79.7459 16.9927 79.7205 17.0774 79.6538 17.1154C79.3971 17.2625 78.7725 17.2406 78.4895 17.1744C78.3419 17.1398 78.2791 17.0901 78.2265 16.9469C78.1393 16.7096 78.188 16.3584 78.1924 16.1075C78.2055 15.3719 78.3799 13.5427 78.0058 12.9913C77.8933 12.8256 77.7262 12.7248 77.5294 12.6926C77.3058 12.6561 77.0729 12.6858 76.8907 12.8295C76.1585 13.4073 76.3587 15.4323 76.3622 16.2693C76.3631 16.4705 76.4041 16.7583 76.3573 16.9464C76.3383 17.0248 76.3154 17.0726 76.2482 17.1169C76.0129 17.2713 75.3747 17.2382 75.0931 17.1827C74.9748 17.1593 74.8993 17.0867 74.8481 16.9795C74.776 16.827 74.7546 12.4262 74.7814 11.9902C74.7887 11.8689 74.814 11.7393 74.8695 11.63C74.9412 11.4898 75.061 11.3985 75.2081 11.351C75.5564 11.2385 75.991 11.363 76.2988 11.534C76.3729 11.809 76.3198 12.169 76.3081 12.4559C76.3441 12.3828 76.3807 12.3098 76.4182 12.2377C76.69 11.7125 76.9453 11.4985 77.5001 11.3223Z" fill="#0D0B0A"/>
<path d="M71.1684 11.3452C72.7889 11.3118 74.1353 12.5879 74.1889 14.2085C74.2423 15.8286 72.9833 17.1906 71.3637 17.2642C70.2984 17.3128 69.2886 16.7844 68.7211 15.8813C68.1541 14.9777 68.1168 13.8386 68.6235 12.8999C69.1296 11.9609 70.1021 11.3673 71.1684 11.3452ZM70.9682 12.6333C70.5329 12.8267 70.2959 13.0485 70.1274 13.5034C69.9258 14.0475 69.9591 14.8074 70.2172 15.3267C70.3565 15.6062 70.572 15.8337 70.8725 15.9341C71.0785 16.0032 71.2719 16.014 71.4828 15.9644C71.9001 15.7895 72.1493 15.5667 72.3207 15.1392C72.5355 14.6028 72.5335 13.8855 72.2865 13.3599C72.1322 13.0313 71.8577 12.7611 71.5053 12.6567C71.3328 12.6056 71.145 12.6172 70.9682 12.6333Z" fill="#0D0B0A"/>
<path d="M38.3522 11.3534C39.9832 11.2799 41.3658 12.5411 41.442 14.1718C41.5185 15.8032 40.2585 17.1881 38.6275 17.2665C36.9932 17.345 35.6053 16.0829 35.5289 14.4482C35.4527 12.8138 36.7175 11.4273 38.3522 11.3534ZM38.8121 12.6718C38.6232 12.6072 38.4287 12.6089 38.233 12.6337C37.7963 12.8495 37.5463 13.0744 37.3795 13.5517C37.1909 14.0924 37.2188 14.8645 37.4908 15.372C37.6393 15.6492 37.8644 15.8517 38.1676 15.9443C38.3534 16.0012 38.5636 16.007 38.7525 15.9618C39.1688 15.789 39.4132 15.5646 39.5807 15.1376C39.7932 14.5959 39.7766 13.8805 39.5309 13.3515C39.3866 13.0407 39.1403 12.7843 38.8121 12.6718Z" fill="#0D0B0A"/>
<path d="M64.5343 11.386C65.585 11.216 66.6457 11.6241 67.3126 12.4533C67.9788 13.2829 68.1481 14.4065 67.756 15.3957C67.3633 16.3846 66.4698 17.0875 65.4161 17.2346C63.8111 17.459 62.3247 16.3489 62.0831 14.7463C61.8411 13.1436 62.9345 11.6449 64.5343 11.386ZM64.7755 12.6301C64.3371 12.8167 64.0846 13.0286 63.9073 13.4826C63.6995 14.015 63.7201 14.7515 63.9659 15.2688C64.1145 15.581 64.3672 15.8383 64.7013 15.9445C64.8684 15.9981 65.0581 15.9972 65.2306 15.9758C65.668 15.7912 65.9224 15.5846 66.1036 15.1301C66.314 14.602 66.3106 13.8735 66.0655 13.3576C65.9199 13.0514 65.6729 12.793 65.3487 12.6779C65.1656 12.6132 64.9669 12.614 64.7755 12.6301Z" fill="#0D0B0A"/>
<path d="M49.7499 11.325C50.12 11.281 50.4769 11.2883 50.8417 11.3728C51.3956 11.5012 51.8599 11.8232 52.1425 12.3201C52.2935 12.5861 52.3809 12.8784 52.4228 13.1804C52.4875 13.6474 52.524 16.5995 52.4179 17.0056C52.3288 17.1194 52.2392 17.1605 52.1005 17.1902C51.8637 17.2404 51.3447 17.2708 51.1532 17.0935C50.9862 16.9391 51.0204 16.616 51.0185 16.408C50.7408 16.8181 50.4615 17.1489 49.9569 17.2752C49.3933 17.4154 48.8704 17.2506 48.3847 16.9705C48.178 16.7798 48.0207 16.5846 47.9315 16.3142C47.7816 15.8579 47.8297 15.2424 48.0634 14.822C48.6299 13.8024 49.9651 13.8633 50.9413 13.5759L51.0019 13.5574C50.9625 13.4354 50.9244 13.3108 50.8739 13.1931C50.3216 11.9195 48.9443 13.3107 48.2782 12.9607C48.1438 12.8901 48.0467 12.747 48.0126 12.6013C47.967 12.4076 48.0193 12.2825 48.1249 12.1218C48.4825 11.5763 49.1527 11.4388 49.7499 11.325ZM50.9364 14.7283C50.5306 14.8398 49.7693 14.9626 49.5273 15.3308C49.4486 15.4511 49.442 15.6086 49.4931 15.741C49.5291 15.8343 49.5997 15.9161 49.662 15.9929C50.0814 16.0212 50.3444 15.9903 50.6649 15.699C50.8593 15.5217 51.0375 15.2369 51.0282 14.9627C51.0258 14.8945 51.0067 14.8253 50.9911 14.7595L50.9364 14.7283Z" fill="#0D0B0A"/>
<path d="M33.1956 12.4213C33.3409 11.9595 34.4721 9.74981 34.8325 9.54229C35.0197 9.43453 36.019 9.41807 36.2198 9.50994C36.3486 9.56889 36.3625 9.60372 36.4208 9.72399C36.318 10.2961 35.0539 12.2162 34.6799 12.8422L34.023 13.9344C34.0255 14.5911 34.141 16.5952 33.9121 17.0706C33.8318 17.132 33.775 17.1661 33.6745 17.1895C33.3661 17.2616 32.7524 17.2401 32.4805 17.0692C32.27 16.792 32.3801 14.4912 32.3805 13.9821C32.0446 13.4453 29.8775 9.98501 29.9347 9.65448C30.0063 9.5515 30.0524 9.52573 30.1684 9.48013C30.534 9.46932 31.2773 9.37237 31.5797 9.55603C31.9722 9.79429 33.0497 11.9351 33.1956 12.4213Z" fill="#0D0B0A"/>
<path d="M60.0331 9.47914C60.4165 9.4692 61.0439 9.37328 61.3747 9.57145C61.4677 10.203 61.4312 10.8714 61.4326 11.5084L61.4365 14.4585C61.4365 15.2287 61.5213 16.1557 61.4219 16.9118C61.4024 17.0623 61.3094 17.1115 61.2003 17.1977C60.8008 17.2109 60.1865 17.3098 59.8577 17.0501C59.7802 16.7549 59.7315 9.9448 59.8061 9.6758C59.8416 9.54836 59.9254 9.5338 60.0331 9.47914Z" fill="#0D0B0A"/>
<path d="M14.5759 20.1245C15.1049 20.3126 15.637 20.4631 16.1919 20.5532C17.1478 20.7081 18.2583 20.6628 19.117 21.1607C19.7512 21.5285 20.4006 22.3897 20.5799 23.1039C20.6127 23.2349 20.6032 23.2457 20.5361 23.3543C19.8724 23.5935 19.2277 23.5365 18.5672 23.3202C16.9763 22.7999 15.3546 21.6405 14.5759 20.1245Z" fill="#0D0B0A"/>
<path d="M14.2766 20.1284C14.3102 20.1255 14.3424 20.143 14.3749 20.1523C14.3732 20.1674 14.3735 20.183 14.3699 20.1981C14.2882 20.5366 12.9785 21.9172 12.676 22.1564C11.631 22.9816 10.0793 23.6368 8.73104 23.4756C8.69499 23.4678 8.64491 23.458 8.61208 23.4429C8.53949 23.4093 8.49351 23.3825 8.47436 23.3041C8.42326 23.0932 8.54315 22.8486 8.63902 22.6655C8.94787 22.075 9.43151 21.3823 10.0374 21.0632C10.7843 20.6706 11.8871 20.6721 12.7171 20.5245C13.2488 20.4299 13.7611 20.2858 14.2766 20.1284Z" fill="#0D0B0A"/>
</g>
<defs>
<clipPath id="clip0_16213_28">
<rect width="83.147" height="23.5097" fill="white"/>
</clipPath>
</defs>
</svg>
